<svg width="68" height="60" viewBox="0 0 68 60" fill="none" xmlns="http://www.w3.org/2000/svg">
<path fill-rule="evenodd" clip-rule="evenodd" d="M6.43872 14.0711C6.43872 12.4172 7.79088 11.0715 9.45317 11.0715C11.1154 11.0715 12.4677 12.4172 12.4676 14.0711C12.4676 15.7251 11.1153 17.0707 9.45317 17.0707C7.79102 17.0707 6.43872 15.7252 6.43872 14.0711ZM8.43091 14.0713C8.43091 14.6321 8.88938 15.0884 9.45303 15.0884C10.0168 15.0884 10.4752 14.6321 10.4752 14.0713C10.4752 13.5104 10.0167 13.0542 9.45303 13.0542C8.88938 13.0542 8.43091 13.5104 8.43091 14.0713Z" fill="#BABECA"/>
<path fill-rule="evenodd" clip-rule="evenodd" d="M14.7681 14.0711C14.7681 12.4172 16.1202 11.0715 17.7825 11.0715C19.4448 11.0715 20.797 12.4172 20.797 14.0711C20.797 15.7251 19.4448 17.0707 17.7825 17.0707C16.1204 17.0707 14.7681 15.7252 14.7681 14.0711ZM16.7603 14.0713C16.7603 14.6321 17.2187 15.0884 17.7824 15.0884C18.346 15.0884 18.8045 14.6321 18.8045 14.0713C18.8045 13.5104 18.346 13.0542 17.7824 13.0542C17.2189 13.0542 16.7603 13.5104 16.7603 14.0713Z" fill="#BABECA"/>
<path fill-rule="evenodd" clip-rule="evenodd" d="M23.0974 14.0711C23.0974 12.4172 24.4496 11.0715 26.1119 11.0715C27.7741 11.0715 29.1263 12.4172 29.1263 14.0711C29.1263 15.7251 27.7741 17.0707 26.1119 17.0707C24.4497 17.0707 23.0974 15.7252 23.0974 14.0711ZM25.0897 14.0713C25.0897 14.6321 25.5482 15.0884 26.1119 15.0884C26.6755 15.0884 27.134 14.6321 27.134 14.0713C27.134 13.5104 26.6755 13.0542 26.1119 13.0542C25.5482 13.0542 25.0897 13.5104 25.0897 14.0713Z" fill="#BABECA"/>
<path d="M60.346 40.2003H24.0934C23.5433 40.2003 23.0973 40.6441 23.0973 41.1915C23.0973 41.7389 23.5433 42.1827 24.0934 42.1827H60.3461C60.8963 42.1827 61.3422 41.7389 61.3422 41.1915C61.3422 40.6441 60.8963 40.2003 60.346 40.2003Z" fill="#BABECA"/>
<path d="M67.0039 28.899C67.554 28.899 68 28.4552 68 27.9078V13.792C68 11.7694 66.3464 10.1239 64.3137 10.1239H36.0501V2.85215C36.0501 1.28091 34.7655 0.00280762 33.1867 0.00280762H20.1068C19.5566 0.00280762 19.1107 0.446596 19.1107 0.993997C19.1107 1.5414 19.5566 1.98519 20.1068 1.98519H33.1867C33.667 1.98519 34.0578 2.374 34.0578 2.85201C34.0578 3.48942 34.0578 24.3808 34.0578 25.0178C34.0578 25.4958 33.667 25.8847 33.1867 25.8847H30.5729C29.7144 25.8847 29.0157 26.5798 29.0157 27.4342V32.4318L23.9735 26.649C23.5499 26.1632 22.9363 25.8846 22.2899 25.8846C21.7674 25.8846 3.35285 25.8846 2.86344 25.8846C2.38305 25.8846 1.99232 25.4958 1.99232 25.0178V2.85215C1.99232 2.37413 2.38305 1.98532 2.86344 1.98532H15.458C16.0082 1.98532 16.4541 1.54153 16.4541 0.994129C16.4541 0.446728 16.0082 0.00293978 15.458 0.00293978H2.86344C1.28456 0.00280762 0 1.28105 0 2.85215V25.018C0 26.5893 1.28456 27.8674 2.86344 27.8674H16.9429V45.7245C16.9429 47.7472 18.5965 49.3927 20.6292 49.3927H24.2067V58.2729C24.2067 59.8663 26.197 60.6025 27.2445 59.4014L35.7384 49.6602C35.8866 49.4903 36.1012 49.3927 36.3274 49.3927H64.3137C66.3464 49.3927 68 47.7472 68 45.7245V32.5335C68 31.9861 67.554 31.5423 67.0039 31.5423C66.4538 31.5423 66.0078 31.9861 66.0078 32.5335V45.7245C66.0078 46.654 65.248 47.4102 64.3138 47.4102H36.3275C35.5238 47.4102 34.7605 47.7567 34.2336 48.3608L26.199 57.5753V49.2055C26.199 48.2155 25.3896 47.4101 24.3947 47.4101H20.6292C19.6952 47.4101 18.9352 46.654 18.9352 45.7244V27.8675H22.2899C22.3586 27.8675 22.4237 27.8971 22.4686 27.9487L23.6366 29.2884C23.3164 29.4532 23.0973 29.7851 23.0973 30.1685C23.0973 30.7159 23.5433 31.1597 24.0934 31.1597H25.2686L28.3458 34.6889H24.0934C23.5433 34.6889 23.0973 35.1327 23.0973 35.6801C23.0973 36.2275 23.5433 36.6713 24.0934 36.6713H60.346C60.8961 36.6713 61.3421 36.2275 61.3421 35.6801C61.3421 35.1327 60.8961 34.6889 60.346 34.6889H30.6607C30.8917 34.4139 31.008 34.0733 31.008 33.7285V31.1599H60.346C60.8961 31.1599 61.3421 30.7161 61.3421 30.1687C61.3421 29.6213 60.8961 29.1773 60.346 29.1773H31.008V27.8675H33.1865C34.5404 27.8675 35.6854 26.9272 35.977 25.6482H60.346C60.8961 25.6482 61.3421 25.2044 61.3421 24.657C61.3421 24.1096 60.8961 23.6658 60.346 23.6658H36.0501V20.1366H60.346C60.8961 20.1366 61.3421 19.6929 61.3421 19.1455C61.3421 18.598 60.8961 18.1543 60.346 18.1543H36.0501V12.1066H64.3137C65.2477 12.1066 66.0077 12.8626 66.0077 13.7921V27.908C66.0077 28.4552 66.4537 28.899 67.0039 28.899Z" fill="#BABECA"/>
</svg>
