<svg width="53" height="60" viewBox="0 0 53 60" fill="none" xmlns="http://www.w3.org/2000/svg">
<path d="M19.7587 4.46179H16.0628C15.5771 4.46179 15.1833 4.85519 15.1833 5.3407C15.1833 5.82621 15.5771 6.2196 16.0628 6.2196H19.7587C20.2444 6.2196 20.6381 5.82621 20.6381 5.3407C20.6381 4.85519 20.2444 4.46179 19.7587 4.46179Z" fill="#BABECA"/>
<path fill-rule="evenodd" clip-rule="evenodd" d="M15.4562 51.7397H20.365C21.5829 51.7397 22.5735 52.7297 22.5735 53.9469V54.6149C22.5735 55.8319 21.5829 56.8222 20.365 56.8222H15.4562C14.2386 56.8222 13.2478 55.8321 13.2478 54.6149V53.9469C13.2478 52.7297 14.2384 51.7397 15.4562 51.7397ZM20.3652 55.0642C20.6088 55.0642 20.8146 54.8585 20.8146 54.6149V53.9469C20.8146 53.7033 20.6088 53.4977 20.3652 53.4977H15.4563C15.2127 53.4977 15.0069 53.7033 15.0069 53.9469V54.6149C15.0069 54.8585 15.2128 55.0642 15.4563 55.0642H20.3652Z" fill="#BABECA"/>
<path fill-rule="evenodd" clip-rule="evenodd" d="M41.3568 35.7906H46.2657C47.4833 35.7906 48.4741 36.781 48.4741 37.9979V38.666C48.4741 39.8831 47.4835 40.8731 46.2657 40.8731H41.3568C40.1391 40.8731 39.1484 39.8831 39.1484 38.666V37.9979C39.1484 36.7809 40.139 35.7906 41.3568 35.7906ZM46.2657 39.1154C46.5093 39.1154 46.7151 38.9097 46.7151 38.6662V37.9981C46.7151 37.7546 46.5093 37.5488 46.2657 37.5488H41.3568C41.1132 37.5488 40.9074 37.7546 40.9074 37.9981V38.6662C40.9074 38.9097 41.1132 39.1154 41.3568 39.1154H46.2657Z" fill="#BABECA"/>
<path fill-rule="evenodd" clip-rule="evenodd" d="M50.688 21.4271H35.7962V14.5298C35.7962 14.0442 35.4024 13.6508 34.9168 13.6508C34.4311 13.6508 34.0373 14.0442 34.0373 14.5298V21.4271H31.9987V10.412C31.9987 9.53053 31.281 8.81311 30.3987 8.81311H5.42273C4.5406 8.81311 3.82288 9.5303 3.82288 10.412V48.7143C3.82288 49.5958 4.54049 50.3132 5.42273 50.3132H30.3987C31.2809 50.3132 31.9987 49.596 31.9987 48.7143V44.6908H34.0373V56.2929C34.0373 57.3678 33.1625 58.2421 32.087 58.2421H19.9628C19.4771 58.2421 19.0834 58.6355 19.0834 59.121C19.0834 59.6065 19.4771 59.9999 19.9628 59.9999H32.0869C34.1322 59.9999 35.7962 58.3369 35.7962 56.2928V44.6907H50.6881C51.949 44.6907 52.9747 43.6655 52.9747 42.4054V23.7122C52.9746 22.4523 51.949 21.4271 50.688 21.4271ZM10.7268 10.571H30.2395V14.3868H10.7268V10.571ZM8.96798 10.571H5.58184V14.3868H8.96798V10.571ZM30.2396 48.5553H5.58184V16.1447H30.2397V21.4271H19.672H19.318C18.0571 21.4271 17.0314 22.4523 17.0314 23.7123V42.4055C17.0314 43.6656 18.0572 44.6908 19.318 44.6908H30.2399V48.5553H30.2396ZM50.688 42.9328C50.9741 42.9328 51.2157 42.6913 51.2157 42.4054H51.2158V32.792H18.7902V42.0516C18.7902 42.5374 19.1856 42.9327 19.6718 42.9327L50.688 42.9328ZM51.2157 31.0342H18.7902V27.2577H51.2158V31.0342H51.2157ZM18.7902 25.4998H51.2157V23.7123C51.2157 23.4265 50.974 23.185 50.688 23.185H19.6718C19.1857 23.185 18.7902 23.5803 18.7902 24.0661V25.4998Z" fill="#BABECA"/>
<path d="M32.087 0H3.73457C1.68926 0 0.0252686 1.66301 0.0252686 3.70711V56.2929C0.0252686 58.3369 1.68926 60 3.73457 60H15.8587C16.3443 60 16.7381 59.6066 16.7381 59.1211C16.7381 58.6356 16.3443 58.2422 15.8587 58.2422H3.73457C2.65909 58.2422 1.78424 57.3679 1.78424 56.293V3.70711C1.78424 2.63227 2.65909 1.75793 3.73457 1.75793H32.0871C33.1626 1.75793 34.0374 2.63227 34.0374 3.70711V10.428C34.0374 10.9136 34.4312 11.307 34.9169 11.307C35.4025 11.307 35.7963 10.9136 35.7963 10.428V3.70711C35.7963 1.66301 34.1323 0 32.087 0Z" fill="#BABECA"/>
</svg>
