<svg width="50" height="60" viewBox="0 0 50 60" fill="none" xmlns="http://www.w3.org/2000/svg">
<path fill-rule="evenodd" clip-rule="evenodd" d="M36.5753 0C34.6643 0 33.1096 1.59298 33.1096 3.55088C33.1096 4.36304 33.3777 5.11193 33.8272 5.71076L25.3539 16.7449C24.8845 16.5012 24.3542 16.3629 23.793 16.3629C22.9604 16.3629 22.1954 16.6655 21.5973 17.1687L16.7314 13.2172C16.9737 12.7326 17.1114 12.1843 17.1114 11.6035C17.1114 9.6455 15.5566 8.05263 13.6457 8.05263C11.7347 8.05263 10.1799 9.64561 10.1799 11.6035C10.1799 12.2615 10.3562 12.878 10.6619 13.407L5.36975 18.2982C4.82957 17.9416 4.18733 17.7338 3.49841 17.7338C1.58733 17.7338 0.0326538 19.3268 0.0326538 21.2847C0.0326538 23.2426 1.58745 24.8356 3.49841 24.8356C5.40937 24.8356 6.96416 23.2426 6.96416 21.2847C6.96416 20.6677 6.80948 20.0871 6.53825 19.5811L11.8711 14.6522C12.3904 14.971 12.9974 15.1546 13.6456 15.1546C14.3692 15.1546 15.0416 14.9258 15.598 14.5358L20.5809 18.5823C20.4178 18.9938 20.3272 19.443 20.3272 19.9139C20.3272 21.8719 21.882 23.4648 23.7929 23.4648C25.7039 23.4648 27.2587 21.8718 27.2587 19.9139C27.2587 19.1668 27.0317 18.4731 26.6456 17.9005L35.1724 6.79673C35.6016 6.99228 36.0761 7.10187 36.5755 7.10187C38.4865 7.10187 40.0412 5.50889 40.0412 3.55099C40.0411 1.5931 38.4864 0 36.5753 0ZM3.49841 23.0812C2.53151 23.0812 1.7451 22.2753 1.7451 21.2848C1.7451 20.2943 2.53163 19.4884 3.49841 19.4884C4.46519 19.4884 5.25172 20.2943 5.25172 21.2848C5.25172 22.2753 4.46519 23.0812 3.49841 23.0812ZM11.8924 11.6036C11.8924 12.5942 12.6789 13.4 13.6457 13.4C14.6124 13.4 15.399 12.5942 15.399 11.6036C15.399 10.6131 14.6124 9.80725 13.6457 9.80725C12.6788 9.80725 11.8924 10.6131 11.8924 11.6036ZM23.793 21.7102C22.8263 21.7102 22.0397 20.9043 22.0397 19.9138C22.0397 18.9233 22.8261 18.1174 23.793 18.1174C24.7598 18.1174 25.5464 18.9233 25.5464 19.9138C25.5464 20.9043 24.7597 21.7102 23.793 21.7102ZM34.822 3.55088C34.822 4.5414 35.6086 5.34725 36.5753 5.34725C37.5421 5.34725 38.3287 4.54129 38.3287 3.55088C38.3287 2.56035 37.5422 1.7545 36.5753 1.7545C35.6085 1.7545 34.822 2.56035 34.822 3.55088Z" fill="black"/>
<path d="M48.2438 30.8843C46.9118 30.0919 44.9637 30.1582 43.6096 32.0896L40.3791 36.4344V26.9342C40.3791 26.4498 39.9958 26.057 39.5229 26.057C39.0501 26.057 38.6668 26.4498 38.6668 26.9342V39.0337C38.6668 39.8708 39.7088 40.2315 40.2041 39.5653L44.9796 33.1425C44.9848 33.1354 44.9901 33.1281 44.9952 33.1207C45.7729 32.0052 46.7392 32.0177 47.384 32.4015C48.026 32.7834 48.5199 33.6329 48.0869 34.5953C48.0845 34.6005 48.0821 34.6059 48.0798 34.6113L43.1317 46.2128C42.2884 48.0036 41.2735 48.8475 39.8876 50.2541C38.6582 51.5015 38.6011 53.6481 38.6393 55.439C38.6586 56.3351 38.6805 57.351 38.2559 57.7956C38.045 58.0167 37.6739 58.1287 37.1531 58.1287H33.0322C32.5594 58.1287 32.176 58.5215 32.176 59.0059C32.176 59.4903 32.5594 59.8831 33.0322 59.8831H37.1531C38.1519 59.8831 38.9348 59.5935 39.48 59.0224C40.4082 58.0501 40.3766 56.5809 40.3511 55.4003C40.3271 54.2776 40.3139 52.2906 41.0924 51.5007C42.4793 50.0933 43.7639 48.9923 44.6872 46.9464C44.6898 46.9405 44.6925 46.9345 44.695 46.9286L49.6455 35.3213C50.4812 33.4528 49.5737 31.6756 48.2438 30.8843Z" fill="black"/>
<path d="M37.0185 10.2684C37.0177 10.2684 37.0172 10.2684 37.0164 10.2684C35.1591 10.2684 33.647 11.8159 33.6457 13.719C33.6445 15.3991 33.6445 14.9289 33.6446 26.4611C33.1474 26.1638 32.5692 25.9933 31.9531 25.9933C30.7823 25.9933 29.7492 26.6088 29.1455 27.5405C28.5532 27.0095 27.7781 26.6875 26.9312 26.6875C25.8057 26.6875 24.8075 27.256 24.1959 28.1276C23.595 27.5572 22.7911 27.2081 21.9094 27.2081C20.0527 27.2081 18.5421 28.7557 18.5421 30.658C18.5421 37.9537 18.5429 44.3719 18.5421 45.5416C18.5376 50.5187 22.1443 50.4031 22.1423 53.573L22.141 56.4972C22.141 58.4167 23.1599 59.6806 24.8665 59.878C24.8985 59.8818 24.9306 59.8835 24.9627 59.8835H29.0363C29.5091 59.8835 29.8925 59.4908 29.8925 59.0063C29.8925 58.5219 29.5091 58.1291 29.0363 58.1291H25.0146C24.212 58.02 23.8533 57.5149 23.8533 56.4977L23.8547 53.574C23.8573 49.3676 20.2507 49.7559 20.2544 45.5433C20.2642 32.1089 20.2544 35.4146 20.2544 30.6583C20.2544 29.7235 20.9967 28.9628 21.9092 28.9628C22.8218 28.9628 23.564 29.7233 23.564 30.6583V35.7128C23.564 36.1972 23.9474 36.59 24.4202 36.59C24.893 36.59 25.2764 36.1972 25.2764 35.7128V30.6583V30.1378C25.2764 29.2031 26.0186 28.4424 26.9312 28.4424C27.8437 28.4424 28.586 29.2028 28.586 30.1378V35.7126C28.586 36.1971 28.9693 36.5898 29.4421 36.5898C29.9149 36.5898 30.2983 36.1971 30.2983 35.7126C30.2983 35.1214 30.2983 30.3014 30.2983 29.4439C30.2983 28.509 31.0405 27.7484 31.9531 27.7484C32.8655 27.7483 33.6445 28.5089 33.6445 29.4439C33.6445 33.7436 33.6445 31.8062 33.6445 35.7126C33.6445 36.1971 34.0278 36.5898 34.5007 36.5898C34.9735 36.5898 35.3568 36.1971 35.3568 35.7126C35.3568 14.4791 35.3564 15.8654 35.3579 13.7208C35.3586 12.7848 36.1023 12.0235 37.016 12.0235C37.0163 12.0235 37.0167 12.0235 37.017 12.0235C37.927 12.0243 38.6671 12.7868 38.6663 13.724V22.8409C38.6663 23.3254 39.0497 23.7181 39.5225 23.7181C39.9953 23.7181 40.3786 23.3254 40.3786 22.8409V13.7247C40.3804 11.8202 38.8731 10.2701 37.0185 10.2684Z" fill="black"/>
</svg>
